<svg width="55" height="401" viewBox="0 0 55 401" fill="none" xmlns="http://www.w3.org/2000/svg">
<path d="M6.06056 345.469C30.9657 393.257 78.788 402.913 132.621 400.458C230.847 395.979 329.742 357.706 400.486 301.211C471.23 244.716 499.476 168.218 506.089 104.05C516.113 6.78334 507.258 -12.2367 464.103 -77.5582C432.605 -125.235 411.123 -148.369 349.371 -189.357C287.619 -230.346 181.59 -290.302 115.415 -223.22C63.0311 -170.118 115.102 -35.6721 115.102 -35.6721C115.102 -35.6721 141.09 26.0201 133.702 76.0387C126.056 127.807 65.9903 191.672 65.9903 191.672C65.9903 191.672 -23.7304 288.306 6.06056 345.469Z" fill="#08D3BB"/>
</svg>
